<?xml version="1.0" encoding="UTF-8" standalone="no"?>
<!-- Created with Inkscape (http://www.inkscape.org/) -->

<svg
   xmlns:dc="http://purl.org/dc/elements/1.1/"
   xmlns:cc="http://creativecommons.org/ns#"
   xmlns:rdf="http://www.w3.org/1999/02/22-rdf-syntax-ns#"
   xmlns:svg="http://www.w3.org/2000/svg"
   xmlns="http://www.w3.org/2000/svg"
   xmlns:sodipodi="http://sodipodi.sourceforge.net/DTD/sodipodi-0.dtd"
   xmlns:inkscape="http://www.inkscape.org/namespaces/inkscape"
   width="64"
   height="64"
   id="svg2"
   version="1.1"
   inkscape:version="0.48.3.1 r9886"
   sodipodi:docname="logo.svg">
  <defs
     id="defs4" />
  <sodipodi:namedview
     id="base"
     pagecolor="#ffffff"
     bordercolor="#666666"
     borderopacity="1.0"
     inkscape:pageopacity="0.0"
     inkscape:pageshadow="2"
     inkscape:zoom="2.8284271"
     inkscape:cx="51.962319"
     inkscape:cy="67.301304"
     inkscape:document-units="px"
     inkscape:current-layer="layer1"
     showgrid="false"
     inkscape:window-width="1920"
     inkscape:window-height="1000"
     inkscape:window-x="1920"
     inkscape:window-y="25"
     inkscape:window-maximized="1"
     fit-margin-top="0"
     fit-margin-left="0"
     fit-margin-right="0"
     fit-margin-bottom="0" />
  <metadata
     id="metadata7">
    <rdf:RDF>
      <cc:Work
         rdf:about="">
        <dc:format>image/svg+xml</dc:format>
        <dc:type
           rdf:resource="http://purl.org/dc/dcmitype/StillImage" />
        <dc:title></dc:title>
      </cc:Work>
    </rdf:RDF>
  </metadata>
  <g
     inkscape:label="Layer 1"
     inkscape:groupmode="layer"
     id="layer1"
     transform="translate(-21.6875,-962.69502)">
    <path
       style="fill:#ffffff;fill-opacity:1;stroke:none"
       d="m 53.41857,962.69563 c -17.54616,0 -31.73107,14.27903 -31.73107,31.94045 0,17.66192 14.18491,32.04622 31.73107,32.04622 7.462417,0 14.383747,-2.6449 19.805652,-6.9803 l 6.67193,6.7687 c 0.296865,0.2991 0.806356,0.2991 1.103233,0 l 4.465465,-4.5478 c 0.296867,-0.2989 0.296867,-0.7589 0,-1.0576 l -6.356721,-6.4515 -0.367744,-0.3173 -5.200954,-5.0767 c -4.477004,6.2986 -11.859169,10.4179 -20.120861,10.4176 -13.582419,0 -24.533791,-11.1291 -24.533791,-24.80132 0,-13.6717 10.951372,-24.69559 24.533791,-24.69576 13.582417,0 24.638861,11.02406 24.638861,24.69576 0,2.06669 -0.260174,4.05572 -0.735488,5.97552 -0.004,0.017 0.0042,0.035 0,0.052 l -0.367744,1.3749 c -0.105608,0.409 0.119796,0.8419 0.525349,0.9518 l 5.516162,1.4807 c 0.405545,0.11 0.831531,-0.1751 0.945628,-0.5816 l 0.262675,-1.0576 c 0.0158,0 0.03673,0 0.05253,0 0.694697,-2.6306 0.998162,-5.36093 0.998162,-8.19673 0,-17.66141 -14.289982,-31.94045 -31.83614,-31.94045 z"
       id="path3851"
       inkscape:connector-curvature="0" />
  </g>
</svg>
