<?xml version="1.0" encoding="UTF-8" standalone="no"?>
<!-- Created with Inkscape (http://www.inkscape.org/) -->

<svg
   xmlns:dc="http://purl.org/dc/elements/1.1/"
   xmlns:cc="http://creativecommons.org/ns#"
   xmlns:rdf="http://www.w3.org/1999/02/22-rdf-syntax-ns#"
   xmlns:svg="http://www.w3.org/2000/svg"
   xmlns="http://www.w3.org/2000/svg"
   xmlns:sodipodi="http://sodipodi.sourceforge.net/DTD/sodipodi-0.dtd"
   xmlns:inkscape="http://www.inkscape.org/namespaces/inkscape"
   width="150"
   height="100"
   id="svg2"
   version="1.1"
   inkscape:version="0.48.2 r9819"
   sodipodi:docname="logo.svg">
  <defs
     id="defs4" />
  <sodipodi:namedview
     id="base"
     pagecolor="#ffffff"
     bordercolor="#666666"
     borderopacity="1.0"
     inkscape:pageopacity="0.0"
     inkscape:pageshadow="2"
     inkscape:zoom="1.4382812"
     inkscape:cx="-4.7685971"
     inkscape:cy="107.79761"
     inkscape:document-units="px"
     inkscape:current-layer="layer1"
     showgrid="false"
     inkscape:window-width="1280"
     inkscape:window-height="694"
     inkscape:window-x="0"
     inkscape:window-y="0"
     inkscape:window-maximized="1"
     fit-margin-top="0"
     fit-margin-left="0"
     fit-margin-right="0"
     fit-margin-bottom="0" />
  <metadata
     id="metadata7">
    <rdf:RDF>
      <cc:Work
         rdf:about="">
        <dc:format>image/svg+xml</dc:format>
        <dc:type
           rdf:resource="http://purl.org/dc/dcmitype/StillImage" />
        <dc:title></dc:title>
      </cc:Work>
    </rdf:RDF>
  </metadata>
  <g
     inkscape:label="Layer 1"
     inkscape:groupmode="layer"
     id="layer1"
     transform="translate(-483.96443,-401.00961)">
    <g
       transform="scale(1.1373873,0.87920797)"
       style="font-size:147.9329071px;font-style:normal;font-variant:normal;font-weight:500;font-stretch:normal;line-height:125%;letter-spacing:0px;word-spacing:0px;fill:#ff5555;fill-opacity:1;stroke:none;font-family:Futura;-inkscape-font-specification:Futura Medium"
       id="text3009" />
    <text
       sodipodi:linespacing="125%"
       id="text3013"
       y="489.69955"
       x="486.43634"
       style="font-size:111.48277283px;font-style:normal;font-variant:normal;font-weight:500;font-stretch:normal;line-height:125%;letter-spacing:0px;word-spacing:0px;fill:#41aacd;fill-opacity:1;stroke:none;font-family:Futura;-inkscape-font-specification:Futura Medium"
       xml:space="preserve"><tspan
         y="489.69955"
         x="486.43634"
         id="tspan3015"
         sodipodi:role="line"
         style="font-style:normal;font-variant:normal;font-weight:normal;font-stretch:normal;fill:#41aacd;fill-opacity:1;font-family:Arvo;-inkscape-font-specification:Arvo">O</tspan></text>
    <rect
       style="opacity:0.6;fill:#ff0032;fill-opacity:1;stroke:none"
       id="rect3024"
       width="12.514884"
       height="32.342583"
       x="259.38562"
       y="542.19965"
       ry="0"
       rx="0"
       transform="matrix(1,0,0.5,0.8660254,0,0)" />
    <g
       style="font-size:65.04891968px;font-style:normal;font-variant:normal;font-weight:500;font-stretch:normal;line-height:125%;letter-spacing:0px;word-spacing:0px;fill:#1a1a1a;fill-opacity:1;stroke:none;font-family:Futura;-inkscape-font-specification:Futura Medium"
       id="text3810"
       transform="matrix(0.85713918,0,0,0.85713918,75.530788,68.133214)">
      <path
         inkscape:connector-curvature="0"
         d="m 588.94859,458.30568 0,17.75506 c -2e-5,5.1243 2.02217,7.68645 6.06657,7.68644 4.04436,10e-6 6.06655,-2.56214 6.06657,-7.68644 l 0,-17.75506 7.14649,0 0,17.91387 c -3e-5,2.47746 -0.30706,4.61611 -0.9211,6.41595 -0.59292,1.60929 -1.6199,3.05976 -3.08093,4.35142 -2.41395,2.0963 -5.48429,3.14445 -9.21103,3.14446 -3.7056,-10e-6 -6.76535,-1.04816 -9.17927,-3.14446 -1.48224,-1.29166 -2.53039,-2.74213 -3.14445,-4.35142 -0.5929,-1.43987 -0.88935,-3.57852 -0.88934,-6.41595 l 0,-17.91387 7.14649,0"
         id="path3842" />
      <path
         inkscape:connector-curvature="0"
         d="m 645.42172,475.45725 -22.16999,0 c 0.19056,2.54099 1.01637,4.56318 2.47745,6.06658 1.46104,1.48224 3.33501,2.22336 5.6219,2.22335 1.77866,10e-6 3.25031,-0.42349 4.41494,-1.27049 1.14341,-0.84698 2.44566,-2.41391 3.90675,-4.7008 l 6.03481,3.36679 c -0.93172,1.58812 -1.91635,2.95389 -2.95388,4.09732 -1.0376,1.12227 -2.14927,2.05396 -3.33503,2.79507 -1.18581,0.71995 -2.46689,1.24931 -3.84322,1.58811 -1.37638,0.3388 -2.8692,0.50819 -4.47847,0.5082 -4.61611,-10e-6 -8.3217,-1.48224 -11.11676,-4.44671 -2.79507,-2.98564 -4.19261,-6.94531 -4.1926,-11.87905 -10e-6,-4.89135 1.35518,-8.85103 4.06555,-11.87905 2.73154,-2.98561 6.35242,-4.47843 10.86267,-4.47847 4.55255,4e-5 8.15226,1.45051 10.79913,4.35142 2.62564,2.8798 3.93848,6.87124 3.93851,11.97434 l -0.0318,1.68339 m -7.33706,-5.84423 c -0.99524,-3.81144 -3.39857,-5.71717 -7.21001,-5.7172 -0.86819,3e-5 -1.68341,0.13767 -2.44569,0.41291 -0.76231,0.25413 -1.46107,0.63527 -2.0963,1.14344 -0.61408,0.48704 -1.14345,1.07994 -1.58811,1.77868 -0.44468,0.69879 -0.78348,1.49285 -1.01639,2.38217 l 14.3565,0"
         id="path3844" />
    </g>
    <rect
       style="fill:#41aacd;fill-opacity:1;stroke:none"
       id="rect3814"
       width="73.699074"
       height="55.621944"
       x="330.95056"
       y="405.0618" />
    <rect
       y="473.89395"
       x="330.95056"
       height="55.621944"
       width="73.699074"
       id="rect3820"
       style="fill:#ff0046;fill-opacity:1;stroke:none" />
    <rect
       y="338.19968"
       x="330.95056"
       height="55.621944"
       width="73.699074"
       id="rect3866"
       style="fill:#1a1a1a;fill-opacity:1;stroke:none" />
  </g>
</svg>
