<?xml version="1.0" encoding="utf-8"?>
<!-- Generator: Adobe Illustrator 18.0.0, SVG Export Plug-In . SVG Version: 6.00 Build 0)  -->
<!DOCTYPE svg PUBLIC "-//W3C//DTD SVG 1.1//EN" "http://www.w3.org/Graphics/SVG/1.1/DTD/svg11.dtd">
<svg version="1.1" id="Layer_1" xmlns="http://www.w3.org/2000/svg" xmlns:xlink="http://www.w3.org/1999/xlink" x="0px" y="0px"
	 viewBox="0 0 375 400" enable-background="new 0 0 375 400" xml:space="preserve">
<g>
	<path stroke="#CCCCCC" stroke-width="3" stroke-linejoin="round" stroke-miterlimit="10" d="M363,390H13V20.9h350V390z M14.4,389
		h347.3V21.9H14.4V389z"/>
	<text transform="matrix(1 0 0 1 23.2529 372.9091)" fill="#CCCCCC" font-family="'Helvetica-Bold'" font-size="29.9535">A0</text>
	<text transform="matrix(1 0 0 1 313.7812 373.5927)" fill="#CCCCCC" font-family="'Helvetica-Bold'" font-size="29.9535">D0</text>
	<text transform="matrix(1 0 0 1 23.2529 340.4384)" fill="#CCCCCC" font-family="'Helvetica-Bold'" font-size="29.9535">A1</text>
	<text transform="matrix(1 0 0 1 313.7812 341.122)" fill="#CCCCCC" font-family="'Helvetica-Bold'" font-size="29.9535">D1</text>
	<text transform="matrix(1 0 0 1 23.2539 307.6269)" fill="#CCCCCC" font-family="'Helvetica-Bold'" font-size="29.9535">A2</text>
	<text transform="matrix(1 0 0 1 313.7812 308.3105)" fill="#CCCCCC" font-family="'Helvetica-Bold'" font-size="29.9535">D2</text>
	<text transform="matrix(1 0 0 1 23.2539 275.1562)" fill="#CCCCCC" font-family="'Helvetica-Bold'" font-size="29.9535">A3</text>
	<text transform="matrix(1 0 0 1 313.7812 275.8398)" fill="#CCCCCC" font-family="'Helvetica-Bold'" font-size="29.9535">D3</text>
	<text transform="matrix(1 0 0 1 23.2539 241.6591)" fill="#CCCCCC" font-family="'Helvetica-Bold'" font-size="29.9535">A4</text>
	<text transform="matrix(1 0 0 1 313.7812 242.3427)" fill="#CCCCCC" font-family="'Helvetica-Bold'" font-size="29.9535">D4</text>
	<text transform="matrix(1 0 0 1 23.2539 209.1884)" fill="#CCCCCC" font-family="'Helvetica-Bold'" font-size="29.9535">A5</text>
	<text transform="matrix(1 0 0 1 313.7812 209.872)" fill="#CCCCCC" font-family="'Helvetica-Bold'" font-size="29.9535">D5</text>
	<text transform="matrix(1 0 0 1 313.7822 177.06)" fill="#CCCCCC" font-family="'Helvetica-Bold'" font-size="29.9535">D6</text>
	<text transform="matrix(1 0 0 1 313.7822 144.5888)" fill="#CCCCCC" font-family="'Helvetica-Bold'" font-size="29.9535">D7</text>
</g>
</svg>
